<!-- icon666.com - MILLIONS vector ICONS FREE --><svg id="Layer_1" enable-background="new 0 0 48 48" viewBox="0 0 48 48" xmlns="http://www.w3.org/2000/svg"><path d="m24 3c-11.58 0-21 9.42-21 21s9.42 21 21 21 21-9.42 21-21-9.42-21-21-21zm0 40c-10.48 0-19-8.52-19-19s8.52-19 19-19 19 8.52 19 19-8.52 19-19 19z"></path><path d="m36.02 17.64-5.66-5.66c-.19-.19-.44-.29-.71-.29s-.52.11-.71.29l-4.94 4.95-4.95-4.95c-.38-.38-1.04-.38-1.41 0l-5.66 5.66c-.39.39-.39 1.02 0 1.41l4.95 4.95-4.95 4.95c-.39.39-.39 1.02 0 1.41l5.66 5.66c.19.19.44.29.71.29s.52-.11.71-.29l4.94-4.95 4.95 4.95c.19.19.44.29.71.29s.52-.11.71-.29l5.66-5.66c.39-.39.39-1.02 0-1.41l-4.96-4.95 4.95-4.95c.39-.39.39-1.02 0-1.41zm-7.07 5.65c-.39.39-.39 1.02 0 1.41l4.95 4.95-4.24 4.24-4.95-4.95c-.2-.2-.45-.29-.71-.29s-.51.1-.71.29l-4.95 4.95-4.24-4.24 4.95-4.95c.39-.39.39-1.02 0-1.41l-4.95-4.95 4.24-4.24 4.95 4.95c.39.39 1.02.39 1.41 0l4.95-4.95 4.24 4.24z"></path></svg>